# xmcd CD database file
#
# Track frame offsets:
#	150
#	15447
#	29512
#	47434
#	62306
#	73825
#	93889
#	108583
#	122426
#	138223
#
# Disc length: 2157 seconds
#
# Revision: 0
# Processed by: cddbd v1.5.2PL0 Copyright (c) Steve Scherf et al.
# Submitted via: CDex 1.51
#
DISCID=77086b0a
DTITLE=Bryan White - Rebecca Lynn and Other Hits
DYEAR=2008
DGENRE=Country
TTITLE0=Eugene You Genius
TTITLE1=Look At Me Now
TTITLE2=Rebecca Lynn
TTITLE3=Between Now and Forever
TTITLE4=So Much For Pretending
TTITLE5=Bad Day To Let You Go
TTITLE6=Love Is The Right Place
TTITLE7=How Lucky I Am
TTITLE8=Love Me Like You Mean It
TTITLE9=You're Still Beautiful To Me
EXTD=YEAR: 2008
EXTT0=
EXTT1=
EXTT2=
EXTT3=
EXTT4=
EXTT5=
EXTT6=
EXTT7=
EXTT8=
EXTT9=
PLAYORDER=
